<svg xmlns="http://www.w3.org/2000/svg" viewBox="0 0 64 64" fill="none">
  <defs>
    <linearGradient id="shieldGradient" x1="0%" y1="0%" x2="100%" y2="100%">
      <stop offset="0%" style="stop-color:#14F195"/>
      <stop offset="100%" style="stop-color:#9945FF"/>
    </linearGradient>
  </defs>
  <path d="M32 4L8 16v16c0 14.4 10.24 27.84 24 32 13.76-4.16 24-17.6 24-32V16L32 4z" fill="url(#shieldGradient)"/>
  <path d="M32 12L16 20v12c0 10.8 6.88 20.88 16 24 9.12-3.12 16-13.2 16-24V20L32 12z" fill="#0A0A0F"/>
  <path d="M32 20l-8 4v6c0 5.4 3.44 10.44 8 12 4.56-1.56 8-6.6 8-12v-6l-8-4z" fill="url(#shieldGradient)" opacity="0.8"/>
  <path d="M28 32l3 3 6-6" stroke="#0A0A0F" stroke-width="2.5" stroke-linecap="round" stroke-linejoin="round"/>
</svg>
